<?xml version="1.0" encoding="utf-8"?><svg xmlns="http://www.w3.org/2000/svg" fill="none" viewBox="0 0 121 64"><g clip-path="url(#a)"><path fill="url(#b)" d="M3.27539 38.427v8.0244h8.00881c-1.63571-.9806-3.14296-2.1621-4.48672-3.5173-1.35389-1.3518-2.5368-2.8655-3.52209-4.5071z"/><path fill="url(#c)" d="M26.4343 0H3.25282v14.6014c.98464-1.6377 2.1649-3.1488 3.51461-4.4997.53295-.53618 1.09996-1.03719 1.69749-1.49988-1.92408 2.36648-3.36448 5.08978-4.23895 8.01458-.87446 2.9248-1.16585 5.9936-.85754 9.0314.30832 3.0377 1.21031 5.9848 2.65446 8.6728 1.44415 2.6881 3.40216 5.0646 5.76221 6.9937 4.7651 3.8947 10.8775 5.7318 16.9931 5.1074 6.1156-.6244 11.7334-3.6593 15.6181-8.4372 3.8726-4.7756 5.6987-10.8966 5.0777-17.0205-.621-6.124-3.6384-11.75094-8.3905-15.64692C36.9432 1.92237 31.7598.0677371 26.4119.067492L26.4343 0zm9.826 33.1024c-.2638.2724-.5488.5232-.8525.75 1.1687-1.4054 2.0499-3.0278 2.5933-4.7747.5434-1.7469.7384-3.584.5738-5.4065-.1646-1.8224-.6855-3.5945-1.533-5.2151-.8475-1.6205-2.005-3.0578-3.4063-4.2297-2.4988-2.0895-5.6491-3.2338-8.9025-3.2338s-6.4037 1.1443-8.9024 3.2338c.2467-.2925.5085-.585.7477-.8624 1.2923-1.2962 2.8265-2.3243 4.515-3.0258 1.6886-.70149 3.4983-1.06254 5.326-1.06254 1.8276 0 3.6374.36105 5.3259 1.06254 1.6885.7015 3.2227 1.7296 4.515 3.0258 1.2922 1.2953 2.3172 2.8333 3.0166 4.526.6994 1.6928 1.0593 3.5071 1.0593 5.3394 0 1.8323-.3599 3.6467-1.0593 5.3394-.6994 1.6928-1.7244 3.2308-3.0166 4.5261v.0075z"/><path fill="#F5C36B" d="M11.2842 46.4514c3.5899 2.1465 7.6916 3.2797 11.8712 3.2797 4.1795 0 8.2812-1.1332 11.8711-3.2797H11.2842zM3.27522 14.6013C1.13204 18.2033.00048828 22.3196.00048828 26.5141c0 4.1945 1.13155172 8.3109 3.27473172 11.9129V14.6013z" opacity=".5"/><path fill="#AC191A" d="M11.2841 46.4514c-1.63577-.9805-3.14301-2.162-4.48677-3.5172-1.34921-1.3513-2.52942-2.8623-3.51462-4.4996v8.0168h8.00139zM3.2754 23.2256c-.00544-5.362 1.84464-10.5598 5.23454-14.70631-.59076.49496-1.16656 1.01242-1.71992 1.56741-1.34971 1.3509-2.52998 2.8619-3.51462 4.4996v8.6393z" opacity=".5"/><path fill="#EC6A38" d="M3.27539 14.6013c.98464-1.6377 2.16491-3.1488 3.51462-4.4997.55336-.55495 1.12916-1.07241 1.71992-1.56737 2.17557-2.66446 4.91417-4.81092 8.01797-6.28427C19.6316.776622 23.023.0132066 26.4569.0148954H3.27539V14.6013z"/><path fill="#fff" d="M26.4344 46.4513c-6.1481 0-12.0444-2.4493-16.3918-6.8092-4.34734-4.3599-6.78967-10.2732-6.78967-16.439v15.2238c.98519 1.6374 2.16541 3.1483 3.51462 4.4997 1.34375 1.3551 2.851 2.5367 4.48675 3.5172l15.1801.0075z" opacity=".5"/><path fill="#AC191A" d="M26.4343 46.4515c5.3479.0123 10.533-1.8439 14.6642-5.2496-.4969.6057-1.0261 1.184-1.5853 1.7324-1.3438 1.3551-2.851 2.5367-4.4868 3.5172h-8.5921z" opacity=".5"/><path fill="url(#d)" d="M26.4343.00007762C23.39-.00781125 20.3741.585708 17.5585 1.74676c-2.8155 1.16104-5.3754 2.86688-7.5336 5.0201-2.15813 2.15323-3.87226 4.71164-5.04449 7.52924-1.17224 2.8176-1.77962 5.8392-1.78746 8.8922-.01589 6.1645 2.41019 12.0829 6.74474 16.4539 4.33451 4.3709 10.22261 6.8364 16.36951 6.8542 5.3945.0149 10.6253-1.8575 14.7913-5.2945 4.7474-3.9167 7.7492-9.564 8.3452-15.7.596-6.136-1.2626-12.2582-5.1671-17.01999-2.168-2.64392-4.8914-4.7751-7.9757-6.24131C33.2166.77439 29.8475.00933745 26.4343.00007762zM36.2603 33.1025c-.2638.2724-.5489.5232-.8525.7499 1.1686-1.4053 2.0498-3.0277 2.5932-4.7746.5435-1.7469.7384-3.584.5739-5.4065-.1646-1.8224-.6855-3.5945-1.533-5.2151-.8475-1.6206-2.005-3.0578-3.4064-4.2297-2.4987-2.0895-5.6491-3.2338-8.9024-3.2338-3.2534 0-6.4038 1.1443-8.9025 3.2338.2468-.2925.5085-.585.7478-.8625 1.2923-1.2961 2.8265-2.3243 4.515-3.0257 1.6885-.70152 3.4983-1.06257 5.3259-1.06257 1.8277 0 3.6374.36105 5.326 1.06257 1.6885.7014 3.2227 1.7296 4.515 3.0257 1.2921 1.2954 2.3172 2.8334 3.0166 4.5261.6993 1.6928 1.0593 3.5071 1.0593 5.3394 0 1.8323-.36 3.6467-1.0593 5.3394-.6994 1.6928-1.7245 3.2307-3.0166 4.5261v.0075z"/><path fill="url(#e)" d="M24.8191 10.9192c-3.35.0044-6.5852 1.2244-9.1081 3.4347-2.4055 2.8-3.604 6.4433-3.332 10.1292.2721 3.6858 1.9923 7.1125 4.7827 9.5268 2.5227 2.182 5.7431 3.3824 9.0745 3.3824 3.3313 0 6.5517-1.2004 9.0744-3.3824 1.196-1.3801 2.1092-2.9829 2.6874-4.717.5782-1.7341.81-3.5654.6822-5.3894-.1277-1.824-.6126-3.6048-1.4269-5.2408-.8142-1.636-1.9419-3.095-3.3186-4.2938-2.5201-2.2042-5.7493-3.4213-9.0932-3.4272l-.0224-.0225z"/><path fill="#F5C36B" d="M36.2605 33.1024c-.2638.2724-.5489.5232-.8525.7499 1.1686-1.4053 2.0498-3.0277 2.5932-4.7746.5435-1.7469.7384-3.584.5739-5.4065-.1646-1.8224-.6855-3.5945-1.533-5.2151-.8475-1.6205-2.005-3.0578-3.4064-4.2297-2.4987-2.0895-5.6491-3.2338-8.9024-3.2338-3.2534 0-6.4038 1.1443-8.9025 3.2338.2468-.2925.5085-.585.7478-.8625 1.2923-1.2961 2.8265-2.3243 4.515-3.0257 1.6885-.70152 3.4983-1.06257 5.3259-1.06257 1.8277 0 3.6374.36105 5.326 1.06257 1.6885.7014 3.2227 1.7296 4.515 3.0257 1.2921 1.2954 2.3172 2.8334 3.0166 4.5261.6993 1.6928 1.0593 3.5071 1.0593 5.3394 0 1.8323-.36 3.6467-1.0593 5.3394-.6994 1.6928-1.7245 3.2307-3.0166 4.5261v.0075z"/><path fill="#EC6A38" d="M36.2605 33.1024c-.2638.2724-.5489.5232-.8525.7499 1.1686-1.4053 2.0498-3.0277 2.5932-4.7746.5435-1.7469.7384-3.584.5739-5.4065-.1646-1.8224-.6855-3.5945-1.533-5.2151-.8475-1.6205-2.005-3.0578-3.4064-4.2297-2.4987-2.0895-5.6491-3.2338-8.9024-3.2338-3.2534 0-6.4038 1.1443-8.9025 3.2338.2468-.2925.5085-.585.7478-.8625 1.2923-1.2961 2.8265-2.3243 4.515-3.0257 1.6885-.70152 3.4983-1.06257 5.3259-1.06257 1.8277 0 3.6374.36105 5.326 1.06257 1.6885.7014 3.2227 1.7296 4.515 3.0257 1.2921 1.2954 2.3172 2.8334 3.0166 4.5261.6993 1.6928 1.0593 3.5071 1.0593 5.3394 0 1.8323-.36 3.6467-1.0593 5.3394-.6994 1.6928-1.7245 3.2307-3.0166 4.5261v.0075z" opacity=".5"/><path fill="#EC6A38" d="M63.1509 15.4712v17.5111h-4.5391V15.4712h4.5391zm24.8192 4.4849c-.4497-.3749-.9541-.6784-1.4955-.9-.4576-.1808-.944-.2773-1.4358-.2849-.5103-.0202-1.0135.1243-1.4357.4124-.1738.1239-.315.2883-.4114.479-.0964.1908-.1451.4021-.142.6159-.0092.2767.0901.5459.2767.75.2144.2202.468.3983.7478.5249.3271.1573.6674.2853 1.0169.3825.3739.105.7478.225 1.1217.345 1.2448.3524 2.3697 1.0397 3.2529 1.9873.7183.9219 1.0843 2.071 1.032 3.2398.0126.8342-.1399 1.6626-.4487 2.4373-.2958.7164-.7481 1.3571-1.3236 1.8748-.6069.5565-1.3224.9804-2.1013 1.2449-.9222.2994-1.8874.4439-2.8565.4275-2.1972-.0047-4.3372-.7026-6.117-1.9948l1.9443-3.6748c.5968.5553 1.2784 1.011 2.019 1.3499.6173.2844 1.2874.4351 1.9667.4425.5959.0509 1.1883-.1319 1.6526-.51.1712-.1411.309-.3185.4034-.5196.0944-.201.1431-.4206.1425-.6428.0098-.2384-.0406-.4754-.1464-.6891-.1059-.2137-.2639-.3971-.4593-.5333-.2626-.1835-.5463-.3346-.845-.4499-.344-.1425-.7478-.2925-1.2563-.465-.5085-.1725-1.1665-.39-1.7274-.6149-.544-.2131-1.0493-.5146-1.4956-.8925-.4556-.3852-.8208-.8667-1.0693-1.4099-.2935-.6754-.4316-1.4085-.4038-2.1448-.0123-.8053.1325-1.6052.4262-2.3548.2629-.6688.66-1.2763 1.1666-1.7849.5454-.5179 1.1922-.9163 1.8994-1.1699.805-.2921 1.6565-.4344 2.5125-.42.9162.007 1.828.128 2.7145.36.9416.2415 1.8506.5966 2.707 1.0574l-1.8321 3.5248zm21.4909 2.2721h6.559v-6.7495h4.539v17.5036h-4.539v-7.2219h-6.559v7.2219h-4.539V15.4712h4.539v6.757z"/><path fill="#AF421E" d="M6.79002 10.0868c-1.34971 1.3509-2.52998 2.8619-3.51462 4.4996v8.6243c-.00544-5.362 1.84464-10.5598 5.23454-14.70631-.59076.50996-1.1516 1.02742-1.71992 1.58241z"/><path fill="#EC6A38" d="M35.0267 46.4515c1.6357-.9805 3.1429-2.1621 4.4867-3.5172.5519-.5486 1.0736-1.1269 1.5629-1.7324-4.1312 3.4057-9.3164 5.2619-14.6642 5.2496h8.6146z" opacity=".5"/><path fill="#AF421E" d="M3.27539 23.2256v15.2013c.98519 1.6373 2.16541 3.1483 3.51462 4.4997 1.34376 1.3551 2.851 2.5366 4.48679 3.5172h15.1577c-6.1391-.006-12.0251-2.4538-16.3668-6.8066-4.34164-4.3527-6.78439-10.2549-6.79231-16.4116z"/></g><g clip-path="url(#f)"><path fill="#002D72" d="M120.993 46.4963H59.9504V64h61.0426V46.4963z"/><path fill="#FFE500" fill-rule="evenodd" d="m70.8384 60.0404 2.019-6.1945v6.1645h3.0435v-9.7868H71.788l-1.9218 4.9047-1.9816-4.9047h-4.1129v9.8168h3.051v-6.1945l2.0564 6.1645 1.9593.03zm32.7536-3.8172c.485-.0029.951-.1903 1.303-.5244.353-.3341.566-.79.596-1.2755V52.001c-.043-.4815-.262-.93-.616-1.2585-.354-.3284-.816-.5133-1.298-.5189h-7.8447v9.8168h3.051v-3.8172h1.2114l1.9813 3.8172h3.507l-2.363-3.8172h.472zm-.823-2.5498c0 .2175-.052.4049-.434.4049h-3.5293V52.151h3.5373c.426 0 .426.2775.426.4575v1.0649zm-17.6778-1.4999v-1.9349h-7.9265v9.8168h8.0312V58.128h-4.9803v-2.0998h4.8682v-1.9274h-4.8682V52.181l4.8756-.0075zm3.8063 0h-2.894v-1.9349h8.8389v1.9349H91.926v7.8819h-3.0509l.0224-7.8819zm26.2105-1.9349h-6.476c-.472-.0152-.931.1511-1.285.4649-.353.3137-.573.7512-.615 1.2225v6.3445c.038.4816.253.9318.605 1.2621.351.3302.813.5167 1.295.5228h6.476c.477-.0171.932-.21 1.277-.542.345-.3321.556-.7799.592-1.2579V51.911c-.044-.472-.265-.9095-.62-1.2231-.354-.3136-.814-.4797-1.287-.4643l.038.015zm-1.122 7.432c-.006.1136-.053.221-.133.3015-.08.0804-.188.128-.301.1334h-3.305c-.116-.0049-.226-.0517-.309-.1317-.084-.0799-.136-.1877-.147-.3032V52.541c0-.1125.067-.345.441-.3825h3.32c.374.0375.419.27.434.3825v5.1296z" clip-rule="evenodd"/><path fill="#000" d="M51.1265 55.2181c.0316.6245-.1446 1.2418-.501 1.7549-.1521.2117-.3537.3826-.5871.4977-.2334.1151-.4915.1708-.7515.1622-.2659.014-.5312-.0367-.7734-.1477-.2421-.1109-.454-.279-.6175-.4897l-.0374.5474h-.7478v-6.7494h.8151v2.5198c.1625-.2005.3696-.3599.6047-.4654.2351-.1055.4916-.1542.7488-.1421.2616-.0106.5219.0434.7578.1571.236.1138.4406.2839.5957.4954.3556.5272.529 1.1568.4936 1.7923v.0675zm-.8076-.09c.0233-.4501-.0887-.8969-.3216-1.2824-.1036-.1461-.242-.2639-.4027-.3425s-.3385-.1155-.5171-.1074c-.2459-.0109-.4891.0555-.6955.1899-.2065.1345-.3659.3303-.4561.56v2.0548c.0951.2278.2567.4214.4636.5553.2069.1338.4494.2017.6955.1947.1763.0069.3516-.0307.5096-.1093.1581-.0786.294-.1957.3952-.3407.2475-.4128.3624-.8919.3291-1.3724zm3.335 1.2224 1.0993-3.5622h.9048l-1.9443 5.4895c-.2916.795-.7478 1.1849-1.4058 1.1849h-.1496l-.3066-.06v-.6599h.2244c.2262.0133.451-.0444.6431-.165.1821-.1607.3123-.3722.3739-.6074l.1794-.4875-1.69-4.7021h.8824l1.189 3.5697z"/></g><defs><linearGradient id="b" x1="1.27879" x2="9.30315" y1="40.4293" y2="48.4382" gradientUnits="userSpaceOnUse"><stop stop-color="#CD3231"/><stop offset="1" stop-color="#FFE77A"/></linearGradient><linearGradient id="c" x1="1276.78" x2="3737.39" y1="12191.5" y2="9740.86" gradientUnits="userSpaceOnUse"><stop stop-color="#CD3231"/><stop offset="1" stop-color="#FFE77A"/></linearGradient><linearGradient id="d" x1="37.0305" x2="15.3931" y1="39.3495" y2="6.84431" gradientUnits="userSpaceOnUse"><stop stop-color="#FFE77A"/><stop offset=".97" stop-color="#C95F49"/></linearGradient><linearGradient id="e" x1="25.5277" x2="25.5277" y1="10.9192" y2="37.3923" gradientUnits="userSpaceOnUse"><stop stop-color="#CA6833"/><stop offset="1" stop-color="#F5C36B" stop-opacity="0"/></linearGradient><clipPath id="a"><path fill="#fff" d="M0 0h120.559v49.7286H0z"/></clipPath><clipPath id="f"><path fill="#fff" d="M0 0h73.8892v17.5036H0z" transform="translate(47.1108 46.4963)"/></clipPath></defs></svg>